<svg xmlns="http://www.w3.org/2000/svg" width="19.156" height="14.367" viewBox="0 0 19.156 14.367">
    <g>
        <g>
            <path fill="#fff" fill-rule="evenodd" d="M10.477 14.895a3.194 3.194 0 0 1 6.184 0h1.7a.8.8 0 1 1 0 1.6h-1.7a3.194 3.194 0 0 1-6.184 0H.8a.8.8 0 1 1 0-1.6zM2.5 22.876a3.194 3.194 0 0 1 6.184 0h9.678a.8.8 0 1 1 0 1.6H8.679a3.194 3.194 0 0 1-6.184 0H.8a.8.8 0 1 1 0-1.6zm3.092 2.395a1.6 1.6 0 1 0-1.6-1.6 1.6 1.6 0 0 0 1.595 1.6zm7.982-7.982a1.6 1.6 0 1 0-1.6-1.6 1.6 1.6 0 0 0 1.595 1.6z" transform="translate(0 -12.5)"/>
        </g>
    </g>
</svg>
