<svg xmlns="http://www.w3.org/2000/svg" width="117.85" height="20.209" viewBox="0 0 117.85 20.209">
    <defs>
        <style>
            .cls-1{fill:#fff}
        </style>
    </defs>
    <g id="Group_97" transform="translate(-2.388 -18.363)">
        <path id="Path_990" d="M2.388 27.385v-.045a8.131 8.131 0 0 1 8.3-8.193 8.7 8.7 0 0 1 6.223 2.173l-2.195 2.648a5.833 5.833 0 0 0-4.136-1.608 4.758 4.758 0 0 0-4.549 4.934v.045a4.746 4.746 0 0 0 4.8 5.024 5.562 5.562 0 0 0 3.282-.951v-2.263H10.6V26.14h6.879v6.88a10.281 10.281 0 0 1-6.766 2.511 7.928 7.928 0 0 1-8.325-8.146z" class="cls-1" transform="translate(0 -.377)"/>
        <path id="Path_991" d="M34.8 26.6h3.439v2.444a3.747 3.747 0 0 1 3.87-2.671v3.6h-.181c-2.286 0-3.689 1.38-3.689 4.277v4.48H34.8z" class="cls-1" transform="translate(-15.573 -3.847)"/>
        <path id="Path_992" d="M49.868 35.334v-.045c0-2.648 2.014-3.87 4.888-3.87a8.622 8.622 0 0 1 2.965.5v-.2c0-1.426-.883-2.218-2.6-2.218a8.926 8.926 0 0 0-3.35.656l-.86-2.625a10.7 10.7 0 0 1 4.707-.973 5.6 5.6 0 0 1 4.1 1.358 5.286 5.286 0 0 1 1.313 3.87v7.038H57.7v-1.318a4.665 4.665 0 0 1-3.666 1.539c-2.288-.001-4.166-1.313-4.166-3.712zm7.9-.792v-.611a5.33 5.33 0 0 0-2.195-.452c-1.471 0-2.377.589-2.377 1.674v.047c0 .928.769 1.471 1.878 1.471 1.605-.002 2.692-.885 2.692-2.129z" class="cls-1" transform="translate(-22.815 -3.936)"/>
        <path id="Path_993" d="M74.653 26.605h3.44v1.742a4.454 4.454 0 0 1 3.779-1.969c2.829 0 5.522 2.218 5.522 6.268v.045c0 4.051-2.648 6.269-5.522 6.269a4.657 4.657 0 0 1-3.779-1.811v5.206h-3.44zm9.3 6.087v-.045a2.977 2.977 0 1 0-5.906 0v.045a2.977 2.977 0 1 0 5.906 0z" class="cls-1" transform="translate(-34.725 -3.852)"/>
        <path id="Path_994" d="M101.66 18.363h3.44v6.11a4.293 4.293 0 0 1 3.553-1.946c2.6 0 4.119 1.72 4.119 4.5v7.852h-3.439v-6.762c0-1.63-.77-2.467-2.083-2.467s-2.15.837-2.15 2.467v6.766h-3.44z" class="cls-1" transform="translate(-47.703)"/>
        <path id="Path_995" d="M126.532 18.363h3.621v3.056h-3.621zm.091 4.391h3.439v12.13h-3.439z" class="cls-1" transform="translate(-59.655)"/>
        <path id="Path_996" d="M136.027 32.738v-.046a6.228 6.228 0 0 1 6.359-6.314 5.963 5.963 0 0 1 4.843 2.037l-2.1 2.263a3.544 3.544 0 0 0-2.761-1.335 3.1 3.1 0 0 0-2.942 3.3v.045a3.108 3.108 0 0 0 3.078 3.349 3.845 3.845 0 0 0 2.784-1.289l2.014 2.037a6.11 6.11 0 0 1-4.956 2.217 6.193 6.193 0 0 1-6.319-6.264z" class="cls-1" transform="translate(-64.217 -3.852)"/>
        <path id="Path_997" d="M159.114 35.334v-.045c0-2.648 2.014-3.87 4.888-3.87a8.621 8.621 0 0 1 2.964.5v-.2c0-1.426-.882-2.218-2.6-2.218a8.926 8.926 0 0 0-3.35.656l-.86-2.625a10.7 10.7 0 0 1 4.707-.973 5.6 5.6 0 0 1 4.1 1.358 5.286 5.286 0 0 1 1.313 3.87v7.038h-3.327v-1.318a4.664 4.664 0 0 1-3.666 1.539c-2.291-.001-4.169-1.313-4.169-3.712zm7.9-.792v-.611a5.331 5.331 0 0 0-2.2-.452c-1.471 0-2.376.589-2.376 1.674v.047c0 .928.769 1.471 1.878 1.471 1.61-.002 2.696-.885 2.696-2.129z" class="cls-1" transform="translate(-75.311 -3.936)"/>
        <path id="Path_998" d="M182.768 32.738v-.046a6.227 6.227 0 0 1 6.359-6.314 5.963 5.963 0 0 1 4.843 2.037l-2.1 2.263a3.544 3.544 0 0 0-2.761-1.335 3.1 3.1 0 0 0-2.942 3.3v.045a3.108 3.108 0 0 0 3.078 3.349 3.843 3.843 0 0 0 2.783-1.289l2.014 2.037a6.11 6.11 0 0 1-4.956 2.217 6.193 6.193 0 0 1-6.318-6.264z" class="cls-1" transform="translate(-86.678 -3.852)"/>
        <path id="Path_999" d="M205.872 41.8l1.154-2.489a3.125 3.125 0 0 0 1.471.475 1.149 1.149 0 0 0 1.2-.792l-4.753-12.175h3.644l2.761 8.26L214 26.815h3.576l-4.666 12.424c-.928 2.466-1.924 3.395-3.983 3.395a5.7 5.7 0 0 1-3.055-.834z" class="cls-1" transform="translate(-97.334 -4.061)"/>
    </g>
</svg>
